<svg width="30" height="35" viewBox="0 0 30 35" fill="none" xmlns="http://www.w3.org/2000/svg">
<path d="M14.5124 0.50935C15.1371 0.979351 15.4842 1.6199 15.5536 2.43098L15.5645 2.42476L15.5644 2.61506C15.5659 2.65725 15.5666 2.69986 15.5666 2.74292L15.5644 2.74408L15.5644 19.2067C15.5791 20.0655 15.9 20.7455 16.5272 21.2468C17.4673 21.9183 18.4476 21.9807 19.4682 21.434L6.12284 29.1206C5.13218 29.6308 4.18464 29.5865 3.28022 28.9878C2.6568 28.5188 2.30989 27.88 2.23947 27.0714L2.22602 27.0791L2.22605 10.2149C2.19434 9.39169 1.87414 8.73683 1.26543 8.25034C0.965099 8.03583 0.660672 7.88348 0.352145 7.79328C-0.0860679 7.67731 -0.0860679 7.13068 0.236956 6.96154C0.973082 6.53755 4.78401 4.34255 11.6697 0.376547C12.6604 -0.133697 13.608 -0.0894297 14.5124 0.50935Z" fill="#9DE8FF"/>
<path d="M15.5644 19.2044C15.555 17.5464 14.2018 15.1359 11.4603 15.1359C10.6985 15.1359 9.98844 15.3349 9.33008 15.7331L21.5653 8.6878C22.1718 8.33542 22.8772 8.13354 23.63 8.13354C25.8875 8.13354 27.7192 9.94912 27.734 12.1944C27.734 12.1948 27.734 12.204 27.734 12.2218L27.7341 24.6574C27.7489 25.5158 28.0698 26.1956 28.6968 26.6968C29.0006 26.9138 29.3086 27.0672 29.6208 27.157C30.0708 27.303 30.0192 27.8292 29.7274 27.9844C28.0269 28.9639 24.6049 30.9382 19.4613 33.9075C18.4706 34.4177 17.5231 34.3735 16.6186 33.7747C15.9937 33.3045 15.6466 32.6637 15.5774 31.8522L15.5644 31.8596V28.7842C15.5644 25.5886 15.5644 19.2083 15.5644 19.2044Z" fill="#106BF3"/>
<path d="M11.4603 15.1359C13.7269 15.1359 15.5644 16.9662 15.5644 19.2241C15.5644 21.4905 15.5644 22.9773 15.5644 23.6845C15.5644 23.6845 8.50277 27.7489 7.47924 28.338C7.39927 28.384 6.07727 29.1429 6.07727 29.1429C7.25139 28.384 7.35616 27.3661 7.35616 26.9141C7.35616 25.6035 7.35616 23.0401 7.35616 19.2241C7.35616 16.9662 9.19364 15.1359 11.4603 15.1359Z" fill="#57AAF9"/>
</svg>
